<?xml version="1.0" encoding="UTF-8" standalone="no"?>
<!-- Created with Inkscape (http://www.inkscape.org/) -->

<svg
   xmlns:dc="http://purl.org/dc/elements/1.1/"
   xmlns:cc="http://creativecommons.org/ns#"
   xmlns:rdf="http://www.w3.org/1999/02/22-rdf-syntax-ns#"
   xmlns:svg="http://www.w3.org/2000/svg"
   xmlns="http://www.w3.org/2000/svg"
   xmlns:sodipodi="http://sodipodi.sourceforge.net/DTD/sodipodi-0.dtd"
   xmlns:inkscape="http://www.inkscape.org/namespaces/inkscape"
   id="svg3390"
   version="1.1"
   inkscape:version="0.91 r13725"
   width="246.73413"
   height="193.74425"
   viewBox="0 0 246.73413 193.74425"
   sodipodi:docname="cornhole.svg">
  <metadata
     id="metadata3396">
    <rdf:RDF>
      <cc:Work
         rdf:about="">
        <dc:format>image/svg+xml</dc:format>
        <dc:type
           rdf:resource="http://purl.org/dc/dcmitype/StillImage" />
        <dc:title></dc:title>
      </cc:Work>
    </rdf:RDF>
  </metadata>
  <defs
     id="defs3394" />
  <sodipodi:namedview
     pagecolor="#ffffff"
     bordercolor="#666666"
     borderopacity="1"
     objecttolerance="10"
     gridtolerance="10"
     guidetolerance="10"
     inkscape:pageopacity="0"
     inkscape:pageshadow="2"
     inkscape:window-width="1280"
     inkscape:window-height="694"
     id="namedview3392"
     showgrid="false"
     showborder="false"
     inkscape:zoom="1.7701005"
     inkscape:cx="-699.48354"
     inkscape:cy="666.73488"
     inkscape:window-x="0"
     inkscape:window-y="1"
     inkscape:window-maximized="1"
     inkscape:current-layer="svg3390" />
  <path
     style="fill:#4d4d4d;stroke-width:1.79999995;stroke-miterlimit:4;stroke-dasharray:none"
     d=""
     id="path3489"
     inkscape:connector-curvature="0" />
  <path
     style="fill:#4d4d4d;stroke-width:1.79999995;stroke-miterlimit:4;stroke-dasharray:none"
     d=""
     id="path3495"
     inkscape:connector-curvature="0" />
  <path
     style="fill:#4d4d4d;stroke-width:1.79999995;stroke-miterlimit:4;stroke-dasharray:none"
     d="M -842.67188 -596.24805 C -843.51905 -596.23557 -844.21258 -596.09707 -844.51172 -595.81055 C -847.18359 -593.25135 -852.88509 -591.04165 -854.53711 -591.92578 C -855.11888 -592.23714 -857.85325 -592.78595 -860.61328 -593.14648 C -864.95895 -593.71413 -866.04949 -593.67624 -868.74023 -592.85742 C -873.83024 -591.30848 -875.62796 -590.17279 -876.94141 -587.67578 C -878.09887 -585.47532 -878.17737 -584.36064 -878.53906 -565.07812 C -878.74832 -553.92251 -879.15791 -540.98106 -879.44922 -536.32031 C -880.9679 -512.0223 -880.57202 -412.19116 -878.81836 -377.14844 L -878.11914 -363.16602 L -876.67773 -363.18555 C -874.33701 -363.21776 -834.89037 -364.8693 -823.54492 -365.41016 C -817.79666 -365.68419 -809.50495 -365.92672 -805.11914 -365.94922 C -797.89926 -365.98626 -797.00528 -365.88089 -795.67188 -364.83203 C -794.54517 -363.94575 -793.74227 -363.75984 -792.25391 -364.03906 C -791.07766 -364.25973 -789.08164 -364.04691 -787.20703 -363.50195 C -785.50174 -363.00621 -783.53068 -362.60156 -782.82617 -362.60156 C -781.13235 -362.60156 -779.47852 -364.15671 -779.47852 -365.75 C -779.47852 -368.0658 -778.80985 -368.85195 -775.35938 -370.59375 C -772.05302 -372.26279 -771.84285 -372.29416 -768.55078 -371.64648 C -765.39853 -371.02631 -763.34239 -370.20332 -754.33984 -365.95703 C -749.27712 -363.56907 -747.9304 -363.13139 -747.54688 -363.75195 C -747.04732 -364.56026 -744.86674 -364.41002 -743.53125 -363.47461 C -740.34332 -361.24169 -733.99028 -358.66934 -728.91602 -357.55664 C -725.80885 -356.87529 -722.87861 -356.11161 -722.40234 -355.85938 C -721.92606 -355.60712 -720.72068 -355.22268 -719.72461 -355.00391 C -718.72854 -354.78514 -717.76906 -354.3708 -717.5918 -354.08398 C -717.41454 -353.79717 -716.3437 -353.5625 -715.21289 -353.5625 C -713.43164 -353.5625 -712.70018 -354.03412 -709.73828 -357.0957 C -705.4779 -361.49946 -699.97706 -365.99023 -698.84375 -365.99023 C -698.13614 -365.99023 -698.05153 -366.55513 -698.35156 -369.24023 C -699.55223 -379.98595 -699.77022 -385.28607 -699.79492 -404.20703 L -699.82227 -425.19141 L -702.34961 -427.86719 L -704.87891 -430.54297 L -704.82812 -435.41211 C -704.78462 -439.68604 -704.99929 -440.79809 -706.58008 -444.51758 C -708.79029 -449.71804 -709.2254 -451.24048 -709.70703 -455.44336 C -710.00942 -458.08215 -710.45834 -459.15611 -711.95117 -460.81055 C -715.33343 -464.55896 -715.9697 -469.44079 -713.35742 -471.60742 C -712.43843 -472.36963 -711.68551 -473.38654 -711.68555 -473.86719 C -711.6856 -474.34784 -712.95818 -476.7257 -714.51172 -479.15039 C -717.06785 -483.13985 -717.33594 -483.87011 -717.33594 -486.82812 C -717.33594 -489.76652 -717.47842 -490.16175 -718.74805 -490.74023 C -719.52485 -491.09416 -720.16016 -491.63001 -720.16016 -491.93164 C -720.16016 -492.52494 -716.72386 -495.91883 -716.11914 -495.92383 C -715.91661 -495.92527 -715.59992 -497.45211 -715.41406 -499.31641 C -714.31997 -510.29042 -714.2406 -509.12471 -716.21875 -511.23633 C -718.89011 -514.08793 -719.63291 -516.3498 -719.97852 -522.6875 C -720.51994 -532.61575 -718.35869 -539.18896 -714.20898 -540.23047 C -713.48917 -540.41113 -710.54916 -540.80058 -707.67773 -541.09766 C -700.51523 -541.83868 -696.80464 -543.69576 -694.39453 -547.74219 C -693.04202 -550.01296 -692.63358 -551.37406 -692.61328 -553.67383 C -692.5988 -555.31544 -692.17731 -557.77865 -691.67773 -559.14844 C -690.90905 -561.25612 -690.88905 -561.77816 -691.53906 -562.53906 C -693.08628 -564.35021 -693.09087 -564.99037 -691.61523 -571.48828 C -691.33912 -572.70409 -691.48497 -572.75977 -694.94141 -572.75977 C -697.56787 -572.75977 -698.76028 -573.00573 -699.30664 -573.66406 C -699.94408 -574.43211 -700.87825 -574.51294 -705.44922 -574.1875 C -708.82274 -573.94731 -711.68345 -573.40677 -713.09766 -572.74414 C -714.34052 -572.16178 -717.36785 -571.50711 -719.82422 -571.28906 L -724.29102 -570.89258 L -723.95508 -572.95508 L -723.62109 -575.01953 L -729.06836 -575.01953 C -734.29416 -575.01953 -741.78235 -575.94141 -749.48047 -577.5332 C -751.8136 -578.01564 -753.70549 -578.10599 -754.81055 -577.78906 C -755.75257 -577.5189 -757.4623 -577.44743 -758.60938 -577.63086 C -759.87593 -577.83339 -760.8452 -577.71988 -761.08008 -577.33984 C -761.61169 -576.47967 -763.12221 -576.55285 -763.88086 -577.47656 C -764.75862 -578.54532 -772.94603 -580.00368 -780.32617 -580.4043 C -785.92876 -580.70843 -788.41181 -581.27561 -791.47656 -582.95508 C -792.0161 -583.25075 -795.10569 -583.49219 -798.34375 -583.49219 C -803.6275 -583.49219 -804.53159 -583.64812 -807.15234 -585.00781 C -810.21988 -586.59931 -810.51377 -586.59507 -817.0625 -584.8457 C -818.17445 -584.54866 -818.96971 -585.75972 -820.34961 -589.84766 C -820.62751 -590.67092 -821.38897 -590.83789 -824.89453 -590.83789 C -829.08193 -590.83789 -830.56211 -591.33494 -838.25391 -595.33008 C -839.41856 -595.935 -841.25992 -596.26883 -842.67188 -596.24805 z M -782.29297 -563.21289 C -778.17508 -562.97392 -774.23573 -560.53388 -772.44336 -556.24414 C -771.23253 -553.34621 -771.33118 -548.89009 -772.66211 -546.28125 C -773.87828 -543.89737 -792.21626 -524.72189 -793.23633 -524.76758 C -793.59268 -524.78358 -798.10551 -529.16977 -803.26367 -534.51367 C -808.42183 -539.85758 -813.11433 -545.11952 -813.69141 -546.20703 C -815.03051 -548.73058 -815.10309 -554.2855 -813.82812 -556.66992 C -813.32624 -557.60853 -812.19192 -559.10653 -811.30859 -559.99805 C -806.81836 -564.52992 -798.72666 -564.17816 -794.59961 -559.27344 L -793.19336 -557.60352 L -791.30078 -559.61133 C -788.80824 -562.2539 -785.49577 -563.39876 -782.29297 -563.21289 z "
     id="path3537" />
</svg>
